<?xml version="1.0" standalone="no"?>
<!DOCTYPE svg PUBLIC "-//W3C//DTD SVG 20010904//EN"
 "http://www.w3.org/TR/2001/REC-SVG-20010904/DTD/svg10.dtd">
<svg version="1.0" xmlns="http://www.w3.org/2000/svg"
 width="994.000000pt" height="994.000000pt" viewBox="0 0 994.000000 994.000000"
 preserveAspectRatio="xMidYMid meet">
<metadata>
Created by potrace 1.14, written by Peter Selinger 2001-2017
</metadata>
<g transform="translate(0.000000,994.000000) scale(0.100000,-0.100000)"
fill="#000000" stroke="none">
<path d="M135 8719 c-43 -12 -101 -67 -120 -111 -13 -33 -15 -341 -12 -2935 2
-2555 4 -2901 17 -2923 33 -54 75 -80 310 -197 135 -67 535 -265 890 -441
1211 -600 1725 -854 1750 -865 34 -14 109 -16 140 -4 47 20 90 58 112 100 l22
42 1 2885 c1 3149 5 2918 -56 2988 -16 18 -29 30 -29 26 0 -4 -8 0 -17 8 -16
13 -274 143 -298 149 -5 2 -14 7 -20 11 -9 7 -191 99 -205 103 -14 4 -214 106
-224 114 -6 5 -15 10 -21 11 -10 2 -155 73 -1325 652 -338 168 -658 326 -711
352 -99 47 -139 54 -204 35z m432 -589 c6 0 13 -3 15 -8 3 -6 101 -56 448
-226 58 -28 107 -54 108 -58 2 -5 9 -8 15 -8 11 0 119 -53 1172 -577 l520
-258 0 -2608 c0 -1435 -3 -2613 -6 -2618 -3 -5 -77 26 -165 70 -747 372 -1437
711 -1445 711 -5 0 -9 5 -9 10 0 6 -5 10 -11 10 -7 0 -175 81 -375 180 -200
99 -366 180 -370 180 -17 0 -65 44 -60 56 3 7 2 16 -3 18 -4 3 -5 25 -1 49 3
24 3 52 0 63 -4 10 -4 31 0 45 4 15 4 32 0 39 -4 7 -4 26 0 41 5 17 5 31 -1
34 -5 4 -5 13 1 24 5 10 7 21 4 24 -7 7 -11 97 -4 97 7 0 4 89 -3 97 -4 3 -2
13 3 23 5 10 7 20 4 23 -7 7 -11 97 -4 97 7 0 4 89 -3 97 -4 3 -2 13 3 22 5
10 5 23 1 30 -5 7 -5 29 -1 50 4 20 4 46 0 57 -4 10 -4 31 0 45 4 15 4 32 0
39 -4 6 -4 27 0 45 4 18 4 39 0 46 -5 7 -4 22 0 35 5 12 6 24 3 27 -7 8 -10
67 -4 67 8 0 5 89 -2 97 -4 3 -2 13 3 23 5 10 7 20 4 23 -8 8 -10 97 -3 97 4
0 3 18 -1 40 -4 22 -5 40 -1 40 8 0 6 89 -2 97 -4 3 -2 13 3 23 5 10 7 20 4
23 -7 7 -11 97 -4 97 6 0 3 100 -3 107 -3 2 -2 17 3 32 4 16 4 34 0 41 -4 6
-4 27 0 45 4 18 4 39 0 46 -5 7 -5 22 0 34 5 12 5 28 0 35 -4 7 -4 26 0 41 5
17 5 31 -1 34 -5 4 -5 13 1 24 5 10 7 21 4 24 -7 7 -11 97 -4 97 7 0 4 89 -3
97 -4 3 -2 13 3 23 5 10 7 20 4 23 -7 7 -11 97 -4 97 7 0 4 89 -3 97 -4 3 -2
13 3 22 5 10 5 23 1 30 -5 7 -5 29 -1 50 4 20 4 46 0 57 -4 10 -4 31 0 45 4
15 4 32 0 39 -4 6 -4 27 0 45 4 18 4 39 0 46 -5 7 -4 22 0 35 5 12 6 24 3 27
-7 8 -10 67 -4 67 8 0 5 89 -2 97 -4 3 -2 13 3 23 5 10 7 20 4 23 -8 8 -10 97
-3 97 4 0 3 18 -1 40 -4 22 -5 40 -1 40 8 0 6 89 -2 97 -4 3 -2 13 3 23 5 10
7 20 4 23 -7 7 -11 97 -4 97 6 0 3 100 -3 107 -3 2 -2 17 3 32 4 16 4 34 0 41
-4 6 -4 27 0 45 4 18 4 39 0 46 -5 7 -5 22 0 34 5 12 5 28 0 35 -4 7 -4 26 0
41 5 17 5 31 -1 34 -5 4 -5 13 1 24 5 10 7 21 4 24 -7 7 -11 97 -4 97 7 0 4
89 -3 97 -4 3 -2 13 3 23 5 10 7 20 4 23 -7 7 -11 97 -4 97 7 0 4 89 -3 97 -4
3 -2 13 3 22 5 10 5 23 1 30 -5 7 -5 29 -1 50 4 20 4 46 0 57 -4 10 -4 31 0
45 4 15 4 32 0 39 -4 6 -4 27 0 45 4 18 4 39 0 46 -5 7 -4 22 0 35 5 12 6 24
3 27 -7 8 -10 67 -4 67 6 0 6 72 1 95 -1 6 -2 20 -1 32 1 21 4 20 79 -18 42
-21 82 -39 89 -39z"/>
<path d="M6338 8703 c-14 -2 -32 -11 -38 -19 -7 -8 -17 -14 -22 -14 -6 0 -124
-57 -264 -126 -139 -69 -256 -125 -260 -124 -4 1 -10 -2 -13 -7 -7 -10 -498
-253 -511 -253 -6 0 -10 -4 -10 -10 0 -5 -5 -10 -10 -10 -9 0 -771 -372 -825
-402 -11 -7 -38 -20 -60 -31 -72 -34 -140 -68 -155 -77 -32 -20 -546 -268
-554 -268 -5 0 -12 -4 -15 -9 -3 -5 -45 -28 -94 -52 -89 -43 -124 -77 -147
-136 -10 -26 -15 -2783 -10 -5581 l0 -232 33 -48 c44 -66 102 -96 177 -90 43
3 86 20 200 77 80 41 147 74 150 74 3 1 302 149 665 329 1086 539 1144 568
1151 566 4 -1 10 2 13 7 3 4 185 97 404 205 260 130 397 203 397 213 0 8 4 15
8 15 5 0 17 17 26 38 16 36 17 213 17 2913 0 1581 -2 2886 -4 2900 -5 37 -44
96 -75 117 -55 36 -103 46 -174 35z m-147 -535 c0 -17 0 -5188 0 -5210 -1 -12
-88 -60 -303 -166 -167 -83 -568 -281 -891 -441 -323 -160 -592 -291 -598
-291 -5 0 -9 -4 -9 -10 0 -5 -9 -10 -20 -10 -11 0 -20 -4 -20 -10 0 -5 -5 -10
-10 -10 -6 0 -138 -63 -294 -140 -156 -77 -288 -140 -292 -140 -6 0 -10 4855
-5 5205 1 30 7 34 314 185 171 85 315 158 318 163 3 5 8 7 10 6 2 -2 126 57
274 131 149 74 272 134 275 135 3 0 30 14 60 30 30 16 57 30 60 30 7 1 814
402 980 486 74 37 138 68 143 69 4 0 7 -6 8 -12z"/>
<path d="M6815 8689 c-50 -25 -90 -68 -106 -116 -10 -31 -13 -594 -13 -2918 0
-2775 1 -2881 18 -2918 10 -21 30 -49 45 -62 26 -25 370 -201 384 -197 4 1 7
-3 7 -8 0 -5 3 -9 8 -8 8 1 45 -13 52 -21 3 -4 30 -17 60 -31 30 -13 62 -30
71 -37 8 -7 23 -13 31 -13 9 0 21 -7 28 -15 7 -8 17 -15 22 -15 9 0 295 -140
1283 -631 248 -123 452 -224 455 -224 3 -1 122 -60 265 -131 218 -109 268
-130 310 -132 65 -3 127 29 169 87 l31 43 0 2911 0 2912 -22 35 c-32 51 -52
63 -308 190 -339 167 -784 389 -809 402 -11 7 -23 13 -26 13 -3 0 -129 62
-280 137 -1549 768 -1533 761 -1586 763 -33 2 -64 -4 -89 -16z m449 -587 c72
-36 133 -66 136 -67 3 0 235 -115 515 -254 281 -140 733 -364 1005 -499 272
-135 498 -245 503 -244 4 1 7 -3 7 -10 0 -6 3 -8 6 -5 4 4 19 -2 34 -13 15
-11 30 -17 32 -14 8 8 49 -47 42 -57 -4 -7 -6 -280 -2 -344 0 -5 0 -39 -1 -75
0 -36 0 -72 0 -80 1 -8 1 -44 0 -80 0 -36 0 -72 0 -80 1 -8 1 -44 0 -80 0 -36
0 -72 0 -80 0 -8 1 -332 1 -720 -1 -388 0 -712 0 -720 0 -8 0 -44 -1 -80 0
-36 0 -72 0 -80 1 -8 1 -44 0 -80 0 -36 0 -72 0 -80 1 -8 1 -44 0 -80 0 -36 0
-72 0 -80 0 -8 1 -332 1 -720 -1 -388 0 -712 0 -720 0 -8 0 -44 -1 -80 0 -36
0 -72 0 -80 1 -8 1 -44 0 -80 0 -36 0 -72 0 -80 1 -8 1 -44 0 -80 -1 -36 -2
-189 -2 -339 0 -151 -1 -277 -4 -279 -4 -5 -113 49 -937 457 -268 133 -491
242 -495 243 -5 0 -19 8 -33 17 -14 9 -54 30 -90 46 -36 17 -67 33 -68 38 -2
4 -8 5 -13 1 -5 -3 -9 0 -9 5 0 6 -3 10 -7 9 -5 -1 -132 60 -283 135 -151 75
-280 137 -286 137 -7 0 -14 3 -16 8 -1 4 -48 29 -103 56 l-100 49 0 2618 c0
2574 0 2619 19 2613 11 -4 78 -36 150 -72z"/>
</g>
</svg>
